<?xml version="1.0" encoding="UTF-8"?>
<!DOCTYPE svg PUBLIC "-//W3C//DTD SVG 1.1//EN" "http://www.w3.org/Graphics/SVG/1.1/DTD/svg11.dtd">
<!-- Creator: CorelDRAW 2019 (64-Bit) -->
<svg xmlns="http://www.w3.org/2000/svg" xml:space="preserve" width="3147px" height="1080px" version="1.1" style="shape-rendering:geometricPrecision; text-rendering:geometricPrecision; image-rendering:optimizeQuality; fill-rule:evenodd; clip-rule:evenodd"
viewBox="0 0 3147 1080.13"
 xmlns:xlink="http://www.w3.org/1999/xlink"
 xmlns:xodm="http://www.corel.com/coreldraw/odm/2003">
 <defs>
  <style type="text/css">
   <![CDATA[
    .fil3 {fill:#1EAC4B}
    .fil0 {fill:#268ACB}
    .fil7 {fill:#268ACB}
    .fil2 {fill:#8FC43F}
    .fil4 {fill:#DF3286}
    .fil6 {fill:#E41F29}
    .fil5 {fill:#EF9720}
    .fil1 {fill:white}
   ]]>
  </style>
 </defs>
 <g id="Layer_x0020_1">
  <metadata id="CorelCorpID_0Corel-Layer"/>
  <path class="fil0" d="M48.59 401.28l606.64 -33.57c20.21,-1.12 40.8,16.95 36.79,36.79 -43.47,215.5 -35.78,428.24 11.5,638.84 4.44,19.74 -16.55,36.79 -36.79,36.79l-636.54 0c-20.23,0 -34.56,-23.78 -28.97,-43.23 48.34,-168.43 60.97,-357.72 16.09,-599.75 -3.69,-19.89 11.07,-34.75 31.28,-35.87z"/>
  <path class="fil1" d="M196.22 489.59c14.73,0 26.68,11.94 26.68,26.67 0,14.74 -11.95,26.68 -26.68,26.68 -14.73,0 -26.68,-11.94 -26.68,-26.68 0,-14.73 11.95,-26.67 26.68,-26.67zm274.9 117.95c-0.11,-14.16 11.28,-25.74 25.45,-25.85 14.17,-0.11 25.75,11.28 25.86,25.45l0.01 0.91 -0.01 0.21 0.01 0 0 0.91 0.1 0c0,49.02 -19.87,93.4 -52,125.53 -32.13,32.13 -76.51,52 -125.53,52 -49.02,0 -93.41,-19.87 -125.54,-52 -32.12,-32.13 -51.99,-76.51 -51.99,-125.53l0.1 0 0 -0.89c0,-14.17 11.48,-25.66 25.65,-25.66 14.17,0 25.66,11.49 25.66,25.66l0 0.89 0.1 0c0,34.8 14.1,66.31 36.9,89.11 22.81,22.8 54.31,36.91 89.12,36.91 34.8,0 66.31,-14.11 89.11,-36.91 22.8,-22.8 36.91,-54.31 36.91,-89.11l0.1 0 0 -0.68 -0.01 -0.03 0 -0.92zm22.67 -117.95c14.74,0 26.68,11.94 26.68,26.67 0,14.74 -11.94,26.68 -26.68,26.68 -14.73,0 -26.67,-11.94 -26.67,-26.68 0,-14.73 11.94,-26.67 26.67,-26.67z"/>
  <path class="fil2" d="M297.98 360.58l-27.6 -231.8 12.87 -13.34c0.59,1.22 1.2,2.3 1.85,3.22 9.19,-4.57 32.98,-18 49.51,-27.42 5.45,5.8 13.2,9.43 21.79,9.43 9.1,0 17.25,-4.07 22.74,-10.48l57.56 12.46 15.82 10.03c0,0 22.59,192.92 28.49,245.5l-181.62 10.05 -1.41 -7.65zm21.58 -313.31l-19.74 -33.47c0,0 8.51,-3.68 13.34,-1.61 4.83,2.07 10.57,5.06 13.56,3.68 2.99,-1.38 13.8,-12.65 18.4,-14.26 4.6,-1.61 5.98,-1.61 5.98,-1.61 0,0 14.26,4.37 17.71,7.82 3.45,3.45 5.29,5.06 8.74,3.68 3.45,-1.38 13.33,-9.43 17.24,-9.89 3.91,-0.46 6.44,-0.23 6.44,-0.23l-10.66 40.86c-4.58,2.59 -9.03,5.12 -13.03,7.4 -5.41,-5.41 -12.88,-8.76 -21.14,-8.76 -8.68,0 -16.5,3.7 -21.96,9.61l-14.88 -3.22z"/>
  <path class="fil3" d="M275.44 37.71c-2.64,5.81 -1.11,65.72 9.66,80.95 9.19,-4.57 32.98,-18 49.51,-27.42 5.45,5.8 13.2,9.43 21.79,9.43 9.1,0 17.25,-4.07 22.74,-10.48l58.22 12.6c2.64,-5.8 1.11,-65.71 -9.66,-80.94 -9.31,4.63 -33.61,18.36 -50.16,27.79 -5.41,-5.41 -12.88,-8.76 -21.14,-8.76 -8.68,0 -16.5,3.7 -21.96,9.61l-59 -12.78z"/>
  <path class="fil4" d="M419.91 178.5l80.89 18.14 2.74 0.61 0 0 -2.74 -0.61 -36.42 162.46 -103.54 5.73 38.9 -173.54c2.03,-9.06 11.11,-14.82 20.17,-12.79zm183.72 41.19l74.67 16.74c9.06,2.03 14.82,11.11 12.79,20.17l-20.42 91.08 -103.54 5.73 29.86 -133.22c2.26,-0.11 4.47,-0.28 6.64,-0.5z"/>
  <path class="fil5" d="M500.8 196.64l2.74 0.61c-13.76,-10.24 -49.17,-33.64 -40.59,-53.17 10.66,-24.27 37.79,-22.03 53.5,-7.03 15.71,15.01 24.46,40.7 25.41,56.14 0,0 10.11,-3.16 17.68,0.57 7.58,3.73 8.96,4.41 8.96,4.41 0,0 37.97,-48.47 63.6,-38.84 25.63,9.62 32.8,29.83 25.47,38.62 -6.83,8.21 -29.18,20.7 -60.58,22.24l-29.86 133.22 -102.75 5.69 36.42 -162.46zm21.37 -9.94c0,0 -8.45,-32.81 -19.98,-38.49 -11.53,-5.68 -18.64,-3.4 -21.95,3.31 -3.3,6.72 18.85,22.11 41.93,35.18zm111.86 -7.39c0,0 8.28,6.64 5.13,11.72 -3.14,5.09 -31.68,10.93 -37.77,11.14 -6.09,0.21 -13.39,-0.17 -13.39,-0.17 0,0 17.58,-16.16 27.07,-21.54 9.49,-5.38 15.51,-3.7 18.96,-1.15z"/>
  <path class="fil5" d="M29.27 276.18l96.57 -23.31 3.27 -0.78 0 0 -3.27 0.78 29.76 123.31 -121.39 6.72 -19.87 -82.3c-2.61,-10.82 4.11,-21.8 14.93,-24.42zm219.34 -52.94l89.15 -21.52c10.82,-2.61 21.81,4.11 24.42,14.92l35.28 146.16 -121.4 6.72 -34.33 -142.23c2.37,-1.32 4.66,-2.67 6.88,-4.05z"/>
  <path class="fil6" d="M125.84 252.87l3.27 -0.78c-20.22,-3.74 -70.68,-10.16 -71.79,-35.7 -1.38,-31.73 28.98,-43.69 53.81,-35.87 24.84,7.82 47.84,30.81 57.04,46.91 0,0 9.19,-8.74 19.31,-8.74 10.12,0 11.96,0 11.96,0 0,0 15.18,-72.21 47.83,-75.42 32.66,-3.22 51.05,14.71 47.84,28.05 -3.01,12.45 -20.43,37.7 -53.38,55.97l34.33 142.23 -120.46 6.66 -29.76 -123.31zm17.72 -21.99c0,0 -26.45,-30.81 -41.86,-30.81 -15.4,0 -21.84,6.21 -21.84,15.17 0,8.97 31.96,13.8 63.7,15.64zm116.36 -67.15c0,0 12.42,2.76 11.73,9.89 -0.69,7.13 -28.29,28.52 -34.73,31.97 -6.44,3.45 -14.48,6.9 -14.48,6.9 0,0 10.34,-26.68 17.7,-37.49 7.36,-10.81 14.72,-12.19 19.78,-11.27z"/>
  <path class="fil7" d="M1059.52 363.63c120.91,0 218.92,98.02 218.92,218.93 0,120.91 -98.01,218.92 -218.92,218.92 -120.91,0 -218.93,-98.01 -218.93,-218.92l0 -339.43c28.73,-31.3 63.01,-50.57 102.78,-52.43 0,124.18 0,248.36 0,372.54 0,91.15 35.62,168.09 105.89,168.09 82.17,0 130.51,-66.61 130.51,-148.77 0,-82.17 -66.6,-148.77 -148.77,-148.77 -14.79,0 -29.07,2.16 -42.56,6.18 0,0 18.71,-48.63 54.37,-75.71 5.52,-0.41 11.09,-0.63 16.71,-0.63zm1524.71 -231.09c22.06,0 42.14,8.45 57.19,22.29l-21.3 21.3c-9.58,-8.41 -22.14,-13.51 -35.89,-13.51 -30.05,0 -54.42,24.36 -54.42,54.42 0,30.06 24.37,54.42 54.42,54.42 13.75,0 26.31,-5.1 35.89,-13.5l21.3 21.29c-15.05,13.84 -35.13,22.29 -57.19,22.29 -46.67,0 -84.5,-37.83 -84.5,-84.5 0,-46.67 37.83,-84.5 84.5,-84.5zm277.2 20.2c9.72,-10.6 21.09,-17.61 34.1,-19.64l0 27.69c6.57,-7.91 25.46,-27.58 50.82,-27.58 28.92,0 46.22,13.95 52.52,30.7 1.46,-2.04 22.65,-30.7 53.26,-30.7 44.01,0 58.61,29 58.61,67.57l0 0.04 0 75.01c-11.07,12.06 -24.27,19.48 -39.59,20.2l0 -96.82c0,0 -1.54,-32.65 -28.68,-32.65 -41.31,0 -35.45,32.55 -37.51,40.26l0 69.01c-11.07,12.06 -24.27,19.48 -39.59,20.2l0 -96.82c0,0 -1.54,-32.65 -28.68,-32.65 -27.14,0 -35.68,18.62 -35.68,35.18l0 74.09c-11.06,12.06 -24.27,19.48 -39.58,20.2l0 -143.29zm-109.78 -20.2c46.67,0 84.5,37.83 84.5,84.5 0,46.67 -37.83,84.5 -84.5,84.5 -46.67,0 -84.51,-37.83 -84.51,-84.5 0,-46.67 37.84,-84.5 84.51,-84.5zm0 30.08c30.05,0 54.42,24.36 54.42,54.42 0,30.06 -24.37,54.42 -54.42,54.42 -30.06,0 -54.43,-24.36 -54.43,-54.42 0,-30.06 24.37,-54.42 54.43,-54.42zm-849.55 201.01c120.91,0 218.93,98.02 218.93,218.93 0,120.91 -98.02,218.92 -218.93,218.92 -120.91,0 -218.92,-98.01 -218.92,-218.92l0 -339.43c28.73,-31.3 63,-50.57 102.77,-52.43 0,124.18 0,248.36 0,372.54 0,91.15 35.62,168.09 105.9,168.09 82.16,0 130.51,-66.61 130.51,-148.77 0,-82.17 -66.61,-148.77 -148.77,-148.77 -14.8,0 -29.08,2.16 -42.56,6.18 0,0 18.71,-48.63 54.37,-75.71 5.51,-0.41 11.08,-0.63 16.7,-0.63zm458.09 51.51c28.73,-31.3 63,-50.56 102.77,-52.43 0,228.13 0,158.22 0,386.34 -28.73,31.3 -63,50.57 -102.77,52.43 0,-228.12 0,-158.21 0,-386.34zm51.38 -221.22c28.46,0 51.52,23.06 51.52,51.51 0,28.45 -23.06,51.51 -51.52,51.51 -28.44,0 -51.51,-23.06 -51.51,-51.51 0,-28.45 23.07,-51.51 51.51,-51.51zm-222.47 -76.81c28.73,-31.3 63,-50.57 102.77,-52.43 0,228.12 0,456.25 0,684.37 -28.73,31.3 -63.01,50.57 -102.77,52.43 0,-228.12 0,-456.24 0,-684.37zm-671.5 298.03c28.73,-31.3 63.01,-50.56 102.78,-52.43 0,228.13 0,158.22 0,386.34 -28.73,31.3 -63.01,50.57 -102.78,52.43 0,-228.12 0,-158.21 0,-386.34zm51.39 -221.22c28.45,0 51.51,23.06 51.51,51.51 0,28.45 -23.06,51.51 -51.51,51.51 -28.45,0 -51.51,-23.06 -51.51,-51.51 0,-28.45 23.06,-51.51 51.51,-51.51zm-222.48 -76.81c28.73,-31.3 63.01,-50.57 102.78,-52.43 0,228.12 0,456.25 0,684.37 -28.73,31.3 -63.01,50.57 -102.78,52.43 0,-228.12 0,-456.24 0,-684.37z"/>
  <path class="fil7" d="M840.59 1074.8l53.11 0c36.24,0 51.39,-16.11 51.39,-39.5 0,-15.53 -9.4,-27.42 -25.69,-31.06 12.46,-3.84 18.98,-14.76 18.98,-27.03 0,-21.86 -15.53,-36.63 -47.74,-36.63l-50.05 0 0 134.22zm73.82 -40.46c0,11.5 -7.48,17.26 -23.2,17.26l-20.52 0 0 -34.51 20.52 0c15.72,0 23.2,5.94 23.2,17.25zm-4.98 -55.41c0,10.16 -7.1,15.72 -20.71,15.72l-18.03 0 0 -30.87 18.03 0c13.61,0 20.71,4.61 20.71,15.15zm58.75 -38.35l0 134.22 30.68 0 0 -134.22 -30.68 0zm54.54 67.11c0,42.18 28,69.41 67.3,69.41 23.97,0 43.14,-9.21 55.22,-24.54l0 -51.77 -56.18 0 0 22.05 27.04 0 0 18.4c-4.99,6.71 -14.77,10.36 -25.7,10.36 -20.32,0 -36.81,-15.15 -36.81,-43.91 0,-28.76 16.11,-43.91 34.71,-43.91 14.38,0 24.35,6.33 31.06,17.83l25.5 -12.46c-11.7,-19.94 -31.64,-30.87 -57.71,-30.87 -37.78,0 -64.43,27.42 -64.43,69.41zm1167.88 67.11l53.11 0c36.23,0 51.38,-16.11 51.38,-39.5 0,-15.53 -9.4,-27.42 -25.69,-31.06 12.46,-3.84 18.98,-14.76 18.98,-27.03 0,-21.86 -15.53,-36.63 -47.74,-36.63l-50.04 0 0 134.22zm73.81 -40.46c0,11.5 -7.48,17.26 -23.2,17.26l-20.51 0 0 -34.51 20.51 0c15.72,0 23.2,5.94 23.2,17.25zm-4.98 -55.41c0,10.16 -7.1,15.72 -20.71,15.72l-18.02 0 0 -30.87 18.02 0c13.61,0 20.71,4.61 20.71,15.15zm58.76 -38.35l0 134.22 30.67 0 0 -134.22 -30.67 0zm54.54 67.11c0,42.18 27.99,69.41 67.29,69.41 23.97,0 43.14,-9.21 55.22,-24.54l0 -51.77 -56.18 0 0 22.05 27.04 0 0 18.4c-4.99,6.71 -14.76,10.36 -25.69,10.36 -20.33,0 -36.82,-15.15 -36.82,-43.91 0,-28.76 16.11,-43.91 34.71,-43.91 14.38,0 24.35,6.33 31.06,17.83l25.5 -12.46c-11.7,-19.94 -31.64,-30.87 -57.71,-30.87 -37.77,0 -64.42,27.42 -64.42,69.41zm-1149.75 0c0,40.84 24.35,69.41 62.51,69.41 24.35,0 42.56,-11.51 52.34,-27.23l-13.81 -8.63c-10.16,14.19 -22.05,20.52 -37.96,20.52 -26.07,0 -45.82,-18.98 -45.82,-54.07 0,-35.09 19.75,-54.07 45.82,-54.07 15.91,0 27.8,6.33 37.96,20.52l13.81 -8.63c-9.78,-15.72 -27.99,-27.23 -52.34,-27.23 -38.16,0 -62.51,28.57 -62.51,69.41zm138.9 67.11l16.88 0 0 -63.85 70.17 0 0 63.85 16.87 0 0 -134.22 -16.87 0 0 55.42 -70.17 0 0 -55.42 -16.88 0 0 134.22zm248.77 -67.11c0,-38.92 -21.86,-69.41 -59.82,-69.41 -38.16,0 -60.01,30.49 -60.01,69.41 0,38.92 21.85,69.41 60.01,69.41 37.96,0 59.82,-30.49 59.82,-69.41zm-102.58 0c0,-33.17 16.68,-54.07 42.76,-54.07 25.88,0 42.56,20.9 42.56,54.07 0,33.17 -16.68,54.07 -42.56,54.07 -26.08,0 -42.76,-20.9 -42.76,-54.07zm128.55 -67.11l0 134.22 16.87 0 0 -134.22 -16.87 0zm42.85 67.11c0,40.84 24.35,69.41 62.5,69.41 24.35,0 42.56,-11.51 52.34,-27.23l-13.8 -8.63c-10.16,14.19 -22.05,20.52 -37.96,20.52 -26.08,0 -45.83,-18.98 -45.83,-54.07 0,-35.09 19.75,-54.07 45.83,-54.07 15.91,0 27.8,6.33 37.96,20.52l13.8 -8.63c-9.78,-15.72 -27.99,-27.23 -52.34,-27.23 -38.15,0 -62.5,28.57 -62.5,69.41zm138.9 67.11l85.32 0 0 -14.96 -68.45 0 0 -46.78 60.01 0 0 -14.96 -60.01 0 0 -42.56 66.72 0 0 -14.96 -83.59 0 0 134.22zm155.01 -13.04c-15.73,0 -29.34,-5.75 -41.42,-18.6l-12.84 10.74c14.38,15.34 32.4,23.2 54.07,23.2 28.75,0 45.82,-15.53 45.82,-37.58 0,-23.78 -14.77,-33.94 -47.93,-42.76 -20.14,-5.37 -28.57,-14.19 -28.57,-23.96 0,-11.32 8.24,-19.18 25.31,-19.18 12.84,0 23.77,5.56 33.74,15.53l12.27 -10.16c-11.89,-13.23 -28.37,-20.71 -46.4,-20.71 -26.46,0 -42.18,14.38 -42.18,34.52 0,16.1 9.01,30.67 41.22,38.92 25.31,6.52 35.28,13.03 35.28,28.76 0,12.08 -10.93,21.28 -28.37,21.28l0 0zm606.31 13.04l43.72 0c40.45,0 63.65,-25.12 63.65,-67.11 0,-41.8 -23.2,-67.11 -63.65,-67.11l-43.72 0 0 134.22zm16.88 -14.96l0 -104.3 25.5 0c30.29,0 47.74,18.98 47.74,52.15 0,33.36 -17.45,52.15 -47.74,52.15l-25.5 0zm115.51 14.96l85.32 0 0 -14.96 -68.45 0 0 -46.78 60.01 0 0 -14.96 -60.01 0 0 -42.56 66.72 0 0 -14.96 -83.59 0 0 134.22zm149.64 -134.22l-51.77 134.22 18.6 0 12.65 -34.71 59.44 0 12.65 34.71 18.6 0 -51.77 -134.22 -18.4 0zm9.2 17.64l24.35 66.92 -48.7 0 24.35 -66.92zm81.19 116.58l83.41 0 0 -14.96 -66.54 0 0 -119.26 -16.87 0 0 134.22zm149.26 -13.04c-15.72,0 -29.34,-5.75 -41.42,-18.6l-12.84 10.74c14.38,15.34 32.4,23.2 54.07,23.2 28.76,0 45.82,-15.53 45.82,-37.58 0,-23.78 -14.77,-33.93 -47.93,-42.76 -20.14,-5.36 -28.57,-14.19 -28.57,-23.96 0,-11.32 8.24,-19.18 25.31,-19.18 12.84,0 23.77,5.56 33.74,15.53l12.27 -10.16c-11.88,-13.23 -28.37,-20.71 -46.4,-20.71 -26.46,0 -42.18,14.38 -42.18,34.52 0,16.1 9.02,30.65 41.23,38.92 25.31,6.49 35.27,13.03 35.27,28.76 0,12.08 -10.92,21.28 -28.37,21.28l0 0z"/>
 </g>
</svg>
